<?xml version="1.0" standalone="no"?><!DOCTYPE svg PUBLIC "-//W3C//DTD SVG 1.1//EN" "http://www.w3.org/Graphics/SVG/1.1/DTD/svg11.dtd"><svg t="1683527997457" class="icon" viewBox="0 0 1024 1024" version="1.1" xmlns="http://www.w3.org/2000/svg" p-id="2006" xmlns:xlink="http://www.w3.org/1999/xlink" width="200" height="200"><path d="M989.866667 832.853333c-6.826667-34.133333-30.72-61.44-58.026667-75.093333l-95.573333-44.373333c-3.413333-30.72-20.48-54.613333-40.96-68.266667 37.546667-51.2 61.44-116.053333 61.44-187.733333V334.506667C853.333333 150.186667 699.733333 0 512 0S170.666667 150.186667 170.666667 337.92v129.706667c0 68.266667 20.48 129.706667 58.026666 184.32-20.48 10.24-34.133333 34.133333-40.96 61.44L95.573333 750.933333c-30.72 13.653333-54.613333 40.96-61.44 75.093334l-34.133333 177.493333c0 3.413333 0 10.24 3.413333 13.653333 3.413333 3.413333 10.24 6.826667 13.653334 6.826667h989.866666c3.413333 0 10.24-3.413333 13.653334-6.826667s3.413333-10.24 3.413333-13.653333l-34.133333-170.666667zM238.933333 358.4C238.933333 273.066667 358.4 204.8 512 204.8s273.066667 68.266667 273.066667 153.6v136.533333c0 85.333333-119.466667 153.6-273.066667 153.6-167.253333 0-273.066667-85.333333-273.066667-163.84v-126.293333zM512 785.066667c105.813333 0 194.56-40.96 259.413333-109.226667h3.413334c10.24 3.413333 23.893333 20.48 27.306666 44.373333-75.093333 85.333333-180.906667 133.12-293.546666 133.12-109.226667 0-211.626667-44.373333-283.306667-126.293333 3.413333-27.306667 17.066667-47.786667 27.306667-51.2h3.413333c58.026667 68.266667 150.186667 109.226667 256 109.226667z" fill="#8a8a8a" p-id="2007"></path><path d="M512 614.4c146.773333 0 238.933333-61.44 238.933333-119.466667v-3.413333c-47.786667 37.546667-136.533333 71.68-170.666666 71.68h-6.826667c-10.24 13.653333-37.546667 17.066667-61.44 17.066667-34.133333 0-68.266667-10.24-68.266667-34.133334s34.133333-34.133333 68.266667-34.133333c23.893333 0 51.2 3.413333 61.44 17.066667h6.826667c51.2 0 170.666667-64.853333 170.666666-85.333334v-85.333333C750.933333 300.373333 658.773333 238.933333 512 238.933333s-238.933333 61.44-238.933333 119.466667v129.706667C273.066667 546.133333 372.053333 614.4 512 614.4z m-204.8-221.866667c0-23.893333 13.653333-44.373333 30.72-51.2 40.96-20.48 102.4-34.133333 174.08-34.133333 109.226667 0 180.906667 34.133333 201.386667 58.026667 6.826667 6.826667 6.826667 17.066667 0 23.893333-6.826667 6.826667-17.066667 6.826667-23.893334 0-10.24-10.24-68.266667-47.786667-177.493333-47.786667-88.746667 0-136.533333 17.066667-157.013333 27.306667-10.24 6.826667-13.653333 13.653333-13.653334 23.893333v102.4c0 10.24-6.826667 17.066667-17.066666 17.066667s-17.066667-6.826667-17.066667-17.066667v-102.4z" fill="#8a8a8a" p-id="2008"></path></svg>